<svg width="1600" height="900" viewBox="0 0 1600 900" fill="none" xmlns="http://www.w3.org/2000/svg">
  <rect width="1600" height="900" fill="#F5EFE4"/>
  <rect x="120" y="110" width="1360" height="680" rx="52" fill="#FFFBF4"/>
  <rect x="160" y="150" width="220" height="220" rx="56" fill="#111A28"/>
  <path d="M270 212C319.706 212 360 252.294 360 302V386H180V302C180 252.294 220.294 212 270 212Z" fill="#FFFBF4"/>
  <path d="M230 386V306C230 283.909 247.909 266 270 266C292.091 266 310 283.909 310 306V386H230Z" fill="#111A28"/>
  <path d="M183 470C208 430 243 401 287 385C334 368 378 369 418 386" stroke="#C69A5B" stroke-width="20" stroke-linecap="round"/>
  <circle cx="428" cy="390" r="16" fill="#C69A5B"/>
  <path d="M334 188L343 215L370 224L343 233L334 260L325 233L298 224L325 215L334 188Z" fill="#EAD8BB"/>
  <text x="450" y="292" fill="#1A2130" font-family="Georgia, 'Times New Roman', serif" font-size="124" font-weight="700" letter-spacing="-2">Oraya</text>
  <text x="456" y="354" fill="#1E3450" font-family="'SF Pro Text', 'Helvetica Neue', Arial, sans-serif" font-size="34" font-weight="500">Private guidance for your next move.</text>
  <line x1="456" y1="398" x2="1020" y2="398" stroke="#D8CEBC" stroke-width="2"/>
  <text x="456" y="462" fill="#4F5966" font-family="'SF Pro Text', 'Helvetica Neue', Arial, sans-serif" font-size="28" font-weight="500">
    A private doorway into timing, discernment, and the next decision that matters.
  </text>
  <text x="456" y="520" fill="#4F5966" font-family="'SF Pro Text', 'Helvetica Neue', Arial, sans-serif" font-size="28" font-weight="500">
    Built for love, work, uncertainty, and the questions people rarely ask out loud.
  </text>
  <rect x="456" y="590" width="216" height="44" rx="22" fill="#EAD8BB"/>
  <text x="488" y="618" fill="#1A2130" font-family="'SF Pro Text', 'Helvetica Neue', Arial, sans-serif" font-size="18" font-weight="700" letter-spacing="1.4">PRIVATE ORACLE</text>
</svg>
