<svg width="1024" height="1024" viewBox="0 0 1024 1024" fill="none" xmlns="http://www.w3.org/2000/svg">
  <rect width="1024" height="1024" rx="232" fill="#0F1724"/>
  <path d="M172 512C256 383 392 292 512 292C632 292 768 383 852 512C768 641 632 732 512 732C392 732 256 641 172 512Z" fill="#C69A5B"/>
  <path d="M248 512C314 420 408 360 512 360C616 360 710 420 776 512C710 604 616 664 512 664C408 664 314 604 248 512Z" fill="#FFFBF4"/>
  <circle cx="512" cy="512" r="126" fill="#0F1724"/>
  <path d="M314 500C369 441 441 401 521 394C431 450 392 552 410 650C341 618 296 564 289 507L314 500Z" fill="#EAD8BB"/>
  <path d="M700 214L726 292L804 318L726 344L700 422L674 344L596 318L674 292L700 214Z" fill="#EAD8BB"/>
  <circle cx="816" cy="586" r="24" fill="#C69A5B"/>
  <circle cx="224" cy="448" r="18" fill="#EAD8BB"/>
</svg>
