<svg width="1600" height="900" viewBox="0 0 1600 900" fill="none" xmlns="http://www.w3.org/2000/svg">
  <rect width="1600" height="900" rx="0" fill="#F5EFE4"/>
  <rect x="120" y="110" width="1360" height="680" rx="48" fill="#FFFBF4"/>
  <rect x="160" y="150" width="220" height="220" rx="52" fill="#0F1724"/>
  <circle cx="270" cy="260" r="72" stroke="#C69A5B" stroke-width="16"/>
  <path d="M230 206C255 193 288 198 308 220C280 216 253 226 236 246C219 266 214 295 221 321C196 304 183 271 189 240C193 226 202 214 214 206H230Z" fill="#FFFBF4"/>
  <path d="M302 190L309 212L331 219L309 226L302 248L295 226L273 219L295 212L302 190Z" fill="#EAD8BB"/>
  <circle cx="332" cy="296" r="8" fill="#C69A5B"/>
  <circle cx="216" cy="306" r="5" fill="#EAD8BB"/>
  <text x="450" y="280" fill="#1A2130" font-family="Georgia, 'Times New Roman', serif" font-size="128" font-weight="700" letter-spacing="-2">Oraya</text>
  <text x="456" y="350" fill="#1E3450" font-family="'SF Pro Text', 'Helvetica Neue', Arial, sans-serif" font-size="34" font-weight="500" letter-spacing="0.4">Private guidance for your next move.</text>
  <line x1="456" y1="398" x2="1038" y2="398" stroke="#D8CEBC" stroke-width="2"/>
  <text x="456" y="460" fill="#4F5966" font-family="'SF Pro Text', 'Helvetica Neue', Arial, sans-serif" font-size="28" font-weight="500">
    Personal timing, private insight, and clear next steps.
  </text>
  <text x="456" y="520" fill="#4F5966" font-family="'SF Pro Text', 'Helvetica Neue', Arial, sans-serif" font-size="28" font-weight="500">
    Built for love, work, and the moments that feel too important to guess.
  </text>
  <rect x="456" y="588" width="172" height="42" rx="21" fill="#EAD8BB"/>
  <text x="490" y="616" fill="#1A2130" font-family="'SF Pro Text', 'Helvetica Neue', Arial, sans-serif" font-size="18" font-weight="700" letter-spacing="1.4">ORACLE APP</text>
</svg>
