<svg width="1600" height="900" viewBox="0 0 1600 900" fill="none" xmlns="http://www.w3.org/2000/svg">
  <rect width="1600" height="900" fill="#F5EFE4"/>
  <rect x="120" y="110" width="1360" height="680" rx="52" fill="#FFFBF4"/>
  <rect x="160" y="150" width="220" height="220" rx="56" fill="#0F1724"/>
  <path d="M200 260C220 229 252 208 270 208C288 208 320 229 340 260C320 291 288 312 270 312C252 312 220 291 200 260Z" fill="#C69A5B"/>
  <path d="M222 260C238 237 259 223 270 223C281 223 302 237 318 260C302 283 281 297 270 297C259 297 238 283 222 260Z" fill="#FFFBF4"/>
  <circle cx="270" cy="260" r="34" fill="#0F1724"/>
  <path d="M216 256C232 241 255 230 276 229C252 244 240 274 245 302C226 293 214 276 212 259L216 256Z" fill="#EAD8BB"/>
  <path d="M314 197L322 220L345 228L322 236L314 259L306 236L283 228L306 220L314 197Z" fill="#EAD8BB"/>
  <circle cx="339" cy="278" r="7" fill="#C69A5B"/>
  <circle cx="206" cy="243" r="5" fill="#EAD8BB"/>
  <text x="450" y="280" fill="#1A2130" font-family="Georgia, 'Times New Roman', serif" font-size="128" font-weight="700" letter-spacing="-2">Oraya</text>
  <text x="456" y="350" fill="#1E3450" font-family="'SF Pro Text', 'Helvetica Neue', Arial, sans-serif" font-size="34" font-weight="500" letter-spacing="0.4">Private guidance for your next move.</text>
  <line x1="456" y1="398" x2="1038" y2="398" stroke="#D8CEBC" stroke-width="2"/>
  <text x="456" y="460" fill="#4F5966" font-family="'SF Pro Text', 'Helvetica Neue', Arial, sans-serif" font-size="28" font-weight="500">
    Personal timing, private insight, and clear next steps.
  </text>
  <text x="456" y="520" fill="#4F5966" font-family="'SF Pro Text', 'Helvetica Neue', Arial, sans-serif" font-size="28" font-weight="500">
    Built for love, work, and the moments that feel too important to guess.
  </text>
  <rect x="456" y="588" width="172" height="42" rx="21" fill="#EAD8BB"/>
  <text x="490" y="616" fill="#1A2130" font-family="'SF Pro Text', 'Helvetica Neue', Arial, sans-serif" font-size="18" font-weight="700" letter-spacing="1.4">ORACLE APP</text>
</svg>
